<mxfile host="app.diagrams.net" modified="2023-09-05T09:41:41.290Z" agent="Mozilla/5.0 (Macintosh; Intel Mac OS X 10_15_7) AppleWebKit/537.36 (KHTML, like Gecko) Chrome/116.0.0.0 Safari/537.36" etag="KtA7E6tiKl-z3-6pEsaA" version="21.7.2" type="github">
  <diagram name="第 1 页" id="p5tvnPAxK2jM7N4Cxcdh">
    <mxGraphModel dx="954" dy="642" grid="1" gridSize="10" guides="1" tooltips="1" connect="1" arrows="1" fold="1" page="1" pageScale="1" pageWidth="827" pageHeight="1169" math="0" shadow="0">
      <root>
        <mxCell id="0" />
        <mxCell id="1" parent="0" />
        <mxCell id="sI3iWoAzNLH_Q0J9M54Q-50" value="" style="ellipse;whiteSpace=wrap;html=1;strokeColor=#B5739D;fontColor=#393C56;fillColor=#E6D0DE;" vertex="1" parent="1">
          <mxGeometry x="320" y="190" width="320" height="80" as="geometry" />
        </mxCell>
        <mxCell id="sI3iWoAzNLH_Q0J9M54Q-8" value="F&lt;span style=&quot;font-size: 13.3333px;&quot;&gt;&lt;sup&gt;(0)&lt;/sup&gt;&lt;/span&gt;" style="ellipse;whiteSpace=wrap;html=1;aspect=fixed;fillColor=#F2CC8F;strokeColor=#E07A5F;fontFamily=Times New Roman;fontSize=16;labelBackgroundColor=none;fontColor=#393C56;" vertex="1" parent="1">
          <mxGeometry x="360" y="390" width="50" height="50" as="geometry" />
        </mxCell>
        <mxCell id="sI3iWoAzNLH_Q0J9M54Q-9" value="F&lt;sup&gt;(1)&lt;/sup&gt;" style="ellipse;whiteSpace=wrap;html=1;aspect=fixed;fillColor=#F2CC8F;strokeColor=#E07A5F;fontFamily=Times New Roman;fontSize=16;labelBackgroundColor=none;fontColor=#393C56;" vertex="1" parent="1">
          <mxGeometry x="430" y="390" width="50" height="50" as="geometry" />
        </mxCell>
        <mxCell id="sI3iWoAzNLH_Q0J9M54Q-16" value="F&lt;sup&gt;(n)&lt;/sup&gt;" style="ellipse;whiteSpace=wrap;html=1;aspect=fixed;fillColor=#F2CC8F;strokeColor=#E07A5F;fontFamily=Times New Roman;fontSize=16;labelBackgroundColor=none;fontColor=#393C56;" vertex="1" parent="1">
          <mxGeometry x="550" y="390" width="50" height="50" as="geometry" />
        </mxCell>
        <mxCell id="sI3iWoAzNLH_Q0J9M54Q-19" value="..." style="text;html=1;strokeColor=none;fillColor=none;align=center;verticalAlign=middle;whiteSpace=wrap;rounded=0;fontSize=18;fontStyle=0;labelBackgroundColor=none;fontColor=#393C56;" vertex="1" parent="1">
          <mxGeometry x="490" y="390" width="60" height="30" as="geometry" />
        </mxCell>
        <mxCell id="sI3iWoAzNLH_Q0J9M54Q-31" value="" style="endArrow=none;html=1;rounded=0;strokeColor=#000000;fontColor=#393C56;fillColor=#F2CC8F;exitX=0.5;exitY=0;exitDx=0;exitDy=0;" edge="1" parent="1" source="sI3iWoAzNLH_Q0J9M54Q-9" target="sI3iWoAzNLH_Q0J9M54Q-22">
          <mxGeometry width="50" height="50" relative="1" as="geometry">
            <mxPoint x="630" y="280" as="sourcePoint" />
            <mxPoint x="400" y="230" as="targetPoint" />
          </mxGeometry>
        </mxCell>
        <mxCell id="sI3iWoAzNLH_Q0J9M54Q-33" value="" style="endArrow=none;html=1;rounded=0;strokeColor=#000000;fontColor=#393C56;fillColor=#F2CC8F;exitX=0.5;exitY=0;exitDx=0;exitDy=0;entryX=0.45;entryY=0.925;entryDx=0;entryDy=0;entryPerimeter=0;" edge="1" parent="1" source="sI3iWoAzNLH_Q0J9M54Q-8" target="sI3iWoAzNLH_Q0J9M54Q-32">
          <mxGeometry width="50" height="50" relative="1" as="geometry">
            <mxPoint x="310" y="290" as="sourcePoint" />
            <mxPoint x="320" y="260" as="targetPoint" />
          </mxGeometry>
        </mxCell>
        <mxCell id="sI3iWoAzNLH_Q0J9M54Q-34" value="" style="endArrow=none;html=1;rounded=0;strokeColor=#000000;fontColor=#393C56;fillColor=#F2CC8F;exitX=0.5;exitY=0;exitDx=0;exitDy=0;entryX=0.4;entryY=0.725;entryDx=0;entryDy=0;entryPerimeter=0;" edge="1" parent="1" source="sI3iWoAzNLH_Q0J9M54Q-8" target="sI3iWoAzNLH_Q0J9M54Q-23">
          <mxGeometry width="50" height="50" relative="1" as="geometry">
            <mxPoint x="400" y="290" as="sourcePoint" />
            <mxPoint x="450" y="240" as="targetPoint" />
          </mxGeometry>
        </mxCell>
        <mxCell id="sI3iWoAzNLH_Q0J9M54Q-37" value="..." style="text;html=1;strokeColor=none;fillColor=none;align=center;verticalAlign=middle;whiteSpace=wrap;rounded=0;fontSize=18;fontStyle=0;labelBackgroundColor=none;fontColor=#393C56;" vertex="1" parent="1">
          <mxGeometry x="530" y="210" width="60" height="30" as="geometry" />
        </mxCell>
        <mxCell id="sI3iWoAzNLH_Q0J9M54Q-38" value="" style="endArrow=none;html=1;rounded=0;strokeColor=#000000;fontColor=#393C56;fillColor=#F2CC8F;exitX=0.5;exitY=0;exitDx=0;exitDy=0;" edge="1" parent="1" source="sI3iWoAzNLH_Q0J9M54Q-8" target="sI3iWoAzNLH_Q0J9M54Q-22">
          <mxGeometry width="50" height="50" relative="1" as="geometry">
            <mxPoint x="630" y="280" as="sourcePoint" />
            <mxPoint x="680" y="230" as="targetPoint" />
          </mxGeometry>
        </mxCell>
        <mxCell id="sI3iWoAzNLH_Q0J9M54Q-39" value="" style="endArrow=none;html=1;rounded=0;strokeColor=#000000;fontColor=#393C56;fillColor=#F2CC8F;exitX=0.5;exitY=0;exitDx=0;exitDy=0;entryX=0.3;entryY=0.725;entryDx=0;entryDy=0;entryPerimeter=0;" edge="1" parent="1" source="sI3iWoAzNLH_Q0J9M54Q-8" target="sI3iWoAzNLH_Q0J9M54Q-26">
          <mxGeometry width="50" height="50" relative="1" as="geometry">
            <mxPoint x="430" y="280" as="sourcePoint" />
            <mxPoint x="520" y="230" as="targetPoint" />
          </mxGeometry>
        </mxCell>
        <mxCell id="sI3iWoAzNLH_Q0J9M54Q-36" value="" style="endArrow=none;html=1;rounded=0;strokeColor=#000000;fontColor=#393C56;fillColor=#F2CC8F;exitX=0.5;exitY=0;exitDx=0;exitDy=0;" edge="1" parent="1" source="sI3iWoAzNLH_Q0J9M54Q-16" target="sI3iWoAzNLH_Q0J9M54Q-23">
          <mxGeometry width="50" height="50" relative="1" as="geometry">
            <mxPoint x="630" y="280" as="sourcePoint" />
            <mxPoint x="440" y="230" as="targetPoint" />
          </mxGeometry>
        </mxCell>
        <mxCell id="sI3iWoAzNLH_Q0J9M54Q-42" value="" style="endArrow=none;html=1;rounded=0;strokeColor=#000000;fontColor=#393C56;fillColor=#F2CC8F;entryX=0.4;entryY=0.775;entryDx=0;entryDy=0;entryPerimeter=0;exitX=0.5;exitY=0;exitDx=0;exitDy=0;" edge="1" parent="1" source="sI3iWoAzNLH_Q0J9M54Q-16" target="sI3iWoAzNLH_Q0J9M54Q-27">
          <mxGeometry width="50" height="50" relative="1" as="geometry">
            <mxPoint x="630" y="280" as="sourcePoint" />
            <mxPoint x="680" y="230" as="targetPoint" />
          </mxGeometry>
        </mxCell>
        <mxCell id="sI3iWoAzNLH_Q0J9M54Q-40" value="" style="endArrow=none;html=1;rounded=0;strokeColor=#000000;fontColor=#393C56;fillColor=#F2CC8F;entryX=0.15;entryY=0.675;entryDx=0;entryDy=0;entryPerimeter=0;exitX=0.5;exitY=0;exitDx=0;exitDy=0;" edge="1" parent="1" source="sI3iWoAzNLH_Q0J9M54Q-16" target="sI3iWoAzNLH_Q0J9M54Q-26">
          <mxGeometry width="50" height="50" relative="1" as="geometry">
            <mxPoint x="630" y="280" as="sourcePoint" />
            <mxPoint x="680" y="230" as="targetPoint" />
          </mxGeometry>
        </mxCell>
        <mxCell id="sI3iWoAzNLH_Q0J9M54Q-27" value="" style="shape=waypoint;sketch=0;fillStyle=solid;size=6;pointerEvents=1;points=[];fillColor=none;resizable=0;rotatable=0;perimeter=centerPerimeter;snapToPoint=1;strokeColor=#00994D;fontColor=#393C56;" vertex="1" parent="1">
          <mxGeometry x="590" y="220" width="20" height="20" as="geometry" />
        </mxCell>
        <mxCell id="sI3iWoAzNLH_Q0J9M54Q-53" value="3D Points" style="text;html=1;strokeColor=none;fillColor=none;align=center;verticalAlign=middle;whiteSpace=wrap;rounded=0;fontColor=#000000;fontSize=16;fontFamily=Times New Roman;" vertex="1" parent="1">
          <mxGeometry x="410" y="200" width="110" height="20" as="geometry" />
        </mxCell>
        <mxCell id="sI3iWoAzNLH_Q0J9M54Q-56" value="" style="endArrow=none;html=1;rounded=0;strokeColor=#000000;fontColor=#393C56;fillColor=#F2CC8F;exitX=0.5;exitY=0;exitDx=0;exitDy=0;" edge="1" parent="1" source="sI3iWoAzNLH_Q0J9M54Q-9">
          <mxGeometry width="50" height="50" relative="1" as="geometry">
            <mxPoint x="310" y="280" as="sourcePoint" />
            <mxPoint x="360" y="230" as="targetPoint" />
          </mxGeometry>
        </mxCell>
        <mxCell id="sI3iWoAzNLH_Q0J9M54Q-57" value="" style="endArrow=none;html=1;rounded=0;strokeColor=#000000;fontColor=#393C56;fillColor=#F2CC8F;exitX=0.5;exitY=0;exitDx=0;exitDy=0;entryX=0.825;entryY=0.475;entryDx=0;entryDy=0;entryPerimeter=0;" edge="1" parent="1" source="sI3iWoAzNLH_Q0J9M54Q-16" target="sI3iWoAzNLH_Q0J9M54Q-22">
          <mxGeometry width="50" height="50" relative="1" as="geometry">
            <mxPoint x="400" y="430" as="sourcePoint" />
            <mxPoint x="410" y="230" as="targetPoint" />
          </mxGeometry>
        </mxCell>
        <mxCell id="sI3iWoAzNLH_Q0J9M54Q-58" value="" style="endArrow=none;html=1;rounded=0;strokeColor=#000000;fontColor=#393C56;fillColor=#F2CC8F;exitDx=0;exitDy=0;" edge="1" parent="1" source="sI3iWoAzNLH_Q0J9M54Q-23">
          <mxGeometry width="50" height="50" relative="1" as="geometry">
            <mxPoint x="390" y="280" as="sourcePoint" />
            <mxPoint x="460" y="230" as="targetPoint" />
          </mxGeometry>
        </mxCell>
        <mxCell id="sI3iWoAzNLH_Q0J9M54Q-59" value="" style="endArrow=none;html=1;rounded=0;strokeColor=#000000;fontColor=#393C56;fillColor=#F2CC8F;exitX=0.5;exitY=0;exitDx=0;exitDy=0;entryX=0.2;entryY=0.625;entryDx=0;entryDy=0;entryPerimeter=0;" edge="1" parent="1" source="sI3iWoAzNLH_Q0J9M54Q-9" target="sI3iWoAzNLH_Q0J9M54Q-26">
          <mxGeometry width="50" height="50" relative="1" as="geometry">
            <mxPoint x="430" y="280" as="sourcePoint" />
            <mxPoint x="480" y="230" as="targetPoint" />
          </mxGeometry>
        </mxCell>
        <mxCell id="sI3iWoAzNLH_Q0J9M54Q-62" value="" style="endArrow=none;html=1;rounded=0;strokeColor=#000000;fontColor=#393C56;fillColor=#F2CC8F;exitX=0.5;exitY=0;exitDx=0;exitDy=0;" edge="1" parent="1" source="sI3iWoAzNLH_Q0J9M54Q-9" target="sI3iWoAzNLH_Q0J9M54Q-23">
          <mxGeometry width="50" height="50" relative="1" as="geometry">
            <mxPoint x="455" y="390" as="sourcePoint" />
            <mxPoint x="460" y="230" as="targetPoint" />
          </mxGeometry>
        </mxCell>
        <mxCell id="sI3iWoAzNLH_Q0J9M54Q-23" value="" style="shape=waypoint;sketch=0;fillStyle=solid;size=6;pointerEvents=1;points=[];fillColor=none;resizable=0;rotatable=0;perimeter=centerPerimeter;snapToPoint=1;strokeColor=#FF0000;fontColor=#393C56;" vertex="1" parent="1">
          <mxGeometry x="450" y="220" width="20" height="20" as="geometry" />
        </mxCell>
        <mxCell id="sI3iWoAzNLH_Q0J9M54Q-22" value="" style="shape=waypoint;sketch=0;fillStyle=solid;size=6;pointerEvents=1;points=[];fillColor=none;resizable=0;rotatable=0;perimeter=centerPerimeter;snapToPoint=1;strokeColor=#FF0000;fontColor=#393C56;" vertex="1" parent="1">
          <mxGeometry x="403.5" y="220" width="20" height="20" as="geometry" />
        </mxCell>
        <mxCell id="sI3iWoAzNLH_Q0J9M54Q-32" value="" style="shape=waypoint;sketch=0;fillStyle=solid;size=6;pointerEvents=1;points=[];fillColor=none;resizable=0;rotatable=0;perimeter=centerPerimeter;snapToPoint=1;strokeColor=#00994D;fontColor=#393C56;" vertex="1" parent="1">
          <mxGeometry x="350" y="220" width="20" height="20" as="geometry" />
        </mxCell>
        <mxCell id="sI3iWoAzNLH_Q0J9M54Q-26" value="" style="shape=waypoint;sketch=0;fillStyle=solid;size=6;pointerEvents=1;points=[];fillColor=none;resizable=0;rotatable=0;perimeter=centerPerimeter;snapToPoint=1;strokeColor=#FF0000;fontColor=#393C56;" vertex="1" parent="1">
          <mxGeometry x="510" y="220" width="20" height="20" as="geometry" />
        </mxCell>
        <mxCell id="sI3iWoAzNLH_Q0J9M54Q-65" value="" style="endArrow=none;html=1;rounded=0;strokeColor=#000000;fontColor=#393C56;fillColor=#F2CC8F;entryX=0.7;entryY=1.025;entryDx=0;entryDy=0;entryPerimeter=0;exitX=0.5;exitY=0;exitDx=0;exitDy=0;" edge="1" parent="1" source="sI3iWoAzNLH_Q0J9M54Q-8" target="sI3iWoAzNLH_Q0J9M54Q-27">
          <mxGeometry width="50" height="50" relative="1" as="geometry">
            <mxPoint x="250" y="480" as="sourcePoint" />
            <mxPoint x="300" y="430" as="targetPoint" />
          </mxGeometry>
        </mxCell>
      </root>
    </mxGraphModel>
  </diagram>
</mxfile>
